<svg width="16" height="14" fill="none" xmlns="http://www.w3.org/2000/svg"><path d="M5.74 9.197h7.97a.44.44 0 00.422-.318l1.758-6.153a.44.44 0 00-.422-.56H4.727L4.412.752a.44.44 0 00-.429-.344H1.347a.44.44 0 100 .88H3.63l1.587 7.139a1.32 1.32 0 00-.795 1.21 1.32 1.32 0 001.318 1.318h7.969a.44.44 0 100-.879H5.74a.44.44 0 010-.879zm9.145-6.152l-1.507 5.273H6.094L4.922 3.045h9.963z" fill="#000"/><path d="M5.302 12.273a1.32 1.32 0 001.318 1.319 1.32 1.32 0 001.318-1.319 1.32 1.32 0 00-1.318-1.318 1.32 1.32 0 00-1.318 1.318zm1.318-.44a.44.44 0 11-.001.881.44.44 0 01.001-.88zm4.893.44a1.32 1.32 0 001.318 1.319 1.32 1.32 0 001.318-1.319 1.32 1.32 0 00-1.318-1.318 1.32 1.32 0 00-1.318 1.318zm1.318-.44a.44.44 0 11-.001.881.44.44 0 01.001-.88z" fill="#000"/></svg>