<svg width="16" height="14" viewBox="0 0 16 14" fill="none" xmlns="http://www.w3.org/2000/svg">
<path d="M5.74005 9.19735C5.74062 9.19735 5.74188 9.19724 5.74245 9.19724H13.7099C13.9061 9.19724 14.0785 9.06712 14.1324 8.87852L15.8902 2.7262C15.9281 2.59356 15.9016 2.45097 15.8186 2.34087C15.7355 2.23078 15.6056 2.16601 15.4677 2.16601H4.72656L4.41243 0.752326C4.36768 0.551254 4.18938 0.408203 3.98339 0.408203H1.34668C1.10395 0.408203 0.907227 0.604926 0.907227 0.847655C0.907227 1.09038 1.10395 1.28711 1.34668 1.28711H3.63091C3.68653 1.53762 5.1342 8.05226 5.21751 8.42705C4.75048 8.63007 4.42284 9.09573 4.42284 9.63669C4.42284 10.3636 5.01427 10.955 5.74119 10.955H13.7099C13.9526 10.955 14.1494 10.7583 14.1494 10.5156C14.1494 10.2729 13.9526 10.0761 13.7099 10.0761H5.74119C5.49892 10.0761 5.30174 9.87896 5.30174 9.63669C5.30174 9.39476 5.49824 9.19792 5.74005 9.19735ZM14.8851 3.04491L13.3784 8.31833H6.09367L4.9218 3.04491H14.8851Z" fill="black"/>
<path d="M5.30176 12.2734C5.30176 13.0003 5.89319 13.5917 6.62011 13.5917C7.34704 13.5917 7.93847 13.0003 7.93847 12.2734C7.93847 11.5464 7.34704 10.955 6.62011 10.955C5.89319 10.955 5.30176 11.5464 5.30176 12.2734ZM6.62011 11.8339C6.86238 11.8339 7.05956 12.0311 7.05956 12.2734C7.05956 12.5156 6.86238 12.7128 6.62011 12.7128C6.37784 12.7128 6.18066 12.5156 6.18066 12.2734C6.18066 12.0311 6.37784 11.8339 6.62011 11.8339Z" fill="black"/>
<path d="M11.5127 12.2734C11.5127 13.0003 12.1041 13.5917 12.8311 13.5917C13.558 13.5917 14.1494 13.0003 14.1494 12.2734C14.1494 11.5464 13.558 10.955 12.8311 10.955C12.1041 10.955 11.5127 11.5464 11.5127 12.2734ZM12.8311 11.8339C13.0733 11.8339 13.2705 12.0311 13.2705 12.2734C13.2705 12.5156 13.0733 12.7128 12.8311 12.7128C12.5888 12.7128 12.3916 12.5156 12.3916 12.2734C12.3916 12.0311 12.5888 11.8339 12.8311 11.8339Z" fill="black"/>
</svg>
